SplineFontDB: 3.0
FontName: ListingOne
FullName: Listing One
FamilyName: ListingOne
Weight: Regular
Copyright: Copyright (c) 2016, chris
UComments: "2016-11-22: Created with FontForge (http://fontforge.org)"
Version: 001.000
ItalicAngle: 0
UnderlinePosition: -12
UnderlineWidth: 4
Ascent: 103
Descent: 25
InvalidEm: 0
LayerCount: 2
Layer: 0 0 "Back" 1
Layer: 1 0 "Fore" 0
XUID: [1021 226 -69582396 20756]
StyleMap: 0x0000
FSType: 0
OS2Version: 0
OS2_WeightWidthSlopeOnly: 0
OS2_UseTypoMetrics: 1
CreationTime: 1479806616
ModificationTime: 1479915496
OS2TypoAscent: 0
OS2TypoAOffset: 1
OS2TypoDescent: 0
OS2TypoDOffset: 1
OS2TypoLinegap: 12
OS2WinAscent: 0
OS2WinAOffset: 1
OS2WinDescent: 0
OS2WinDOffset: 1
HheadAscent: 0
HheadAOffset: 1
HheadDescent: 0
HheadDOffset: 1
OS2Vendor: 'PfEd'
Lookup: 4 0 1 "'rlig' Required Ligatures in Latin lookup 0" { "'rlig' Required Ligatures in Latin lookup 0-1"  } ['rlig' ('DFLT' <'dflt' > 'latn' <'dflt' > ) ]
MarkAttachClasses: 1
DEI: 91125
Encoding: UnicodeBmp
UnicodeInterp: none
NameList: AGL For New Fonts
DisplaySize: -128
AntiAlias: 1
FitToEm: 0
WinInfo: 26 13 6
BeginPrivate: 0
EndPrivate
Grid
18 92 m 5
 58 92 l 5
 58 64 l 5
 18 64 l 5
 18 92 l 5
38 46 m 1
 70 46 l 1
 70 0 l 1
 38 0 l 1
 38 46 l 1
6 92 m 1
 38 92 l 1
 38 46 l 1
 6 46 l 1
 6 92 l 1
6 68 m 1
 6 92 l 1
 70 92 l 1
 70 68 l 1
 6 68 l 1
32 92 m 1
 44 92 l 1
 44 0 l 1
 32 0 l 1
 32 92 l 1
18 64 m 1
 58 64 l 1
 58 4 l 1
 18 4 l 1
 18 64 l 1
6 68 m 1
 70 68 l 1
 70 0 l 1
 6 0 l 1
 6 68 l 1
EndSplineSet
BeginChars: 65538 87

StartChar: n
Encoding: 110 110 0
Width: 76
VWidth: 0
Flags: W
HStem: 64 4<29.4197 51.8015>
VStem: 58 12<52 59.1706>
LayerCount: 2
Fore
SplineSet
42 68 m 7
 31 68 18 62 18 62 c 4
 18 68 l 4
 6 68 l 4
 6 0 l 4
 18 0 l 4
 18 54 l 6
 18 54 20 58 24 60 c 4
 26 61 32 64 38 64 c 4
 44 64 47 64 52 62 c 4
 58 60 58 54 58 54 c 6
 58 0 l 4
 70 0 l 4
 70 0 70 32 70 52 c 4
 70 64 53 68 42 68 c 7
EndSplineSet
EndChar

StartChar: o
Encoding: 111 111 1
Width: 76
VWidth: 0
Flags: W
HStem: -1 4<26.9855 49.0145> 65 4<26.9855 49.0145>
VStem: 6 12<9.32178 58.6782> 58 12<9.32178 58.6782>
LayerCount: 2
Fore
SplineSet
38 69 m 0
 52 69 70 65 70 51 c 0
 70 37 70 31 70 17 c 0
 70 3 52 -1 38 -1 c 0
 24 -1 6 3 6 17 c 0
 6 31 6 37 6 51 c 0
 6 65 24 69 38 69 c 0
38 65 m 0
 28 65 18 61 18 51 c 0
 18 37 18 31 18 17 c 0
 18 7 28 3 38 3 c 0
 48 3 58 7 58 17 c 0
 58 31 58 37 58 51 c 0
 58 61 48 65 38 65 c 0
EndSplineSet
EndChar

StartChar: dotlessi
Encoding: 305 305 3
Width: 76
VWidth: 0
Flags: W
HStem: 0 21G<33 45> 0 21G<33 45> 64 4<19 33>
VStem: 33 12<0 64>
LayerCount: 2
Fore
SplineSet
19 68 m 5xb0
 45 68 l 5
 45 0 l 5
 33 0 l 5
 33 64 l 4
 19 64 l 4
 19 68 l 5xb0
EndSplineSet
EndChar

StartChar: p
Encoding: 112 112 4
Width: 76
VWidth: 0
Flags: W
HStem: -1 4<26.9355 49.0145> 48 20G<6 18> 65 4<26.9178 49.0145>
VStem: 6 12<-24 2 9.32178 58.6782 66 68> 58 12<9.32178 58.6782>
LayerCount: 2
Fore
SplineSet
38 69 m 0xb8
 52 69 70 65 70 51 c 0
 70 37 70 31 70 17 c 0
 70 3 52 -1 38 -1 c 0
 31 -1 24 0 18 2 c 2
 18 -24 l 1
 6 -24 l 1
 6 18 l 1
 6 50 l 1
 6 68 l 1
 18 68 l 1xd8
 18 66 l 2
 18 66 31 69 38 69 c 0xb8
18 51 m 2
 18 17 l 2
 18 7 28 3 38 3 c 0
 48 3 58 7 58 17 c 0
 58 31 58 37 58 51 c 0
 58 61 48 65 38 65 c 0xb8
 28 65 18 61 18 51 c 2
EndSplineSet
EndChar

StartChar: q
Encoding: 113 113 5
Width: 76
VWidth: 0
Flags: W
HStem: -1 4<26.9855 49.0645> 65 4<26.9855 49.0822>
VStem: 6 12<9.32178 17 51 58.6782> 58 12<9.32178 18 51 58.6782>
LayerCount: 2
Fore
SplineSet
38 69 m 4
 24 69 6 65 6 51 c 4
 6 37 6 31 6 17 c 4
 6 3 24 -1 38 -1 c 4
 45 -1 52 0 58 2 c 6
 58 -24 l 5
 70 -24 l 5
 70 18 l 5
 70 50 l 5
 70 68 l 5
 58 68 l 5
 58 66 l 6
 58 66 45 69 38 69 c 4
58 51 m 6
 58 17 l 6
 58 7 48 3 38 3 c 4
 28 3 18 7 18 17 c 4
 18 31 18 37 18 51 c 4
 18 61 28 65 38 65 c 4
 48 65 58 61 58 51 c 6
EndSplineSet
EndChar

StartChar: d
Encoding: 100 100 6
Width: 76
VWidth: 0
Flags: W
HStem: -1 4<26.9855 49.0645> 0 21G<58 70> 0 21G<58 70> 64 4<26.9855 49.0645> 72 20G<58 70>
VStem: 6 12<9.32178 57.6782> 58 12<0 2 9.32178 57.6782 65 92>
LayerCount: 2
Fore
SplineSet
38 -1 m 0x9e
 24 -1 6 3 6 17 c 0
 6 31 6 36 6 50 c 0
 6 64 24 68 38 68 c 0
 45 68 52 67 58 65 c 2
 58 92 l 1
 70 92 l 1
 70 50 l 1
 70 17 l 1
 70 0 l 1
 58 0 l 1x5e
 58 2 l 2
 52 0 45 -1 38 -1 c 0x9e
58 17 m 2
 58 50 l 2
 58 60 48 64 38 64 c 0
 28 64 18 60 18 50 c 0
 18 36 18 31 18 17 c 0
 18 7 28 3 38 3 c 0x9e
 48 3 58 7 58 17 c 2
EndSplineSet
EndChar

StartChar: b
Encoding: 98 98 7
Width: 76
VWidth: 0
Flags: W
HStem: -1 4<26.9178 49.0145> 0 21G<6 18> 0 21G<6 18> 64 4<26.9355 49.0145> 72 20G<6 18>
VStem: 6 12<0 2 9.32178 57.6782 65 92> 58 12<9.32178 57.6782>
LayerCount: 2
Fore
SplineSet
38 -1 m 0x9e
 31 -1 18 2 18 2 c 2
 18 0 l 1
 6 0 l 1x5e
 6 18 l 1
 6 50 l 1
 6 92 l 1
 18 92 l 1
 18 65 l 2
 24 67 31 68 38 68 c 0
 52 68 70 64 70 50 c 0
 70 36 70 31 70 17 c 0
 70 3 52 -1 38 -1 c 0x9e
18 17 m 2
 18 7 28 3 38 3 c 0x9e
 48 3 58 7 58 17 c 0
 58 31 58 36 58 50 c 0
 58 60 48 64 38 64 c 0
 28 64 18 60 18 50 c 2
 18 17 l 2
EndSplineSet
EndChar

StartChar: a
Encoding: 97 97 8
Width: 76
VWidth: 0
Flags: W
HStem: -1 4<26.9855 49.0645> 0 21G<58 70> 0 21G<58 70> 65 4<26.252 49.748>
VStem: 6 12<9.32178 27.2998 52 59.2367> 58 12<0 2 9.32178 42 46 59.2367>
LayerCount: 2
Fore
SplineSet
58 42 m 1x9c
 24 30 l 2
 22 29 18 26 18 23 c 2
 18 17 l 2
 18 7 28 3 38 3 c 0
 48 3 58 7 58 17 c 2
 58 19 l 1
 58 42 l 1x9c
6 52 m 1
 6 66 24 69 38 69 c 0
 52 69 70 66 70 52 c 2
 70 19 l 1
 70 17 l 1
 70 0 l 1
 58 0 l 1x5c
 58 2 l 1
 52 0 45 -1 38 -1 c 0
 24 -1 6 3 6 17 c 2
 6 22 l 2
 6 25 10 29 12 30 c 2
 58 46 l 1
 58 52 l 2
 58 62 48 65 38 65 c 0
 28 65 18 62 18 52 c 1
 6 52 l 1
EndSplineSet
EndChar

StartChar: s
Encoding: 115 115 10
Width: 76
VWidth: 0
Flags: W
HStem: -1 4<26.252 48.2684> 65 4<22.8133 49.748>
VStem: 6 12<8.76328 16 48.692 61.8331> 58 12<9.71058 24.8337 52 59.2367>
LayerCount: 2
Fore
SplineSet
6 55 m 3
 6 69 24 69 38 69 c 0
 52 69 70 66 70 52 c 0
 58 52 l 0
 58 62 48 65 38 65 c 0
 28 65 18 65 18 55 c 3
 18 47 26 44 38 40 c 0
 51 35 70 31 70 17 c 3
 70 3 52 -1 38 -1 c 0
 24 -1 6 2 6 16 c 4
 18 16 l 4
 18 6 28 3 38 3 c 0
 48 3 58 8 58 17 c 3
 58 27 48 31 38 35 c 0
 25 39 6 45 6 55 c 3
EndSplineSet
EndChar

StartChar: c
Encoding: 99 99 11
Width: 76
VWidth: 0
Flags: W
HStem: -1 4<26.252 49.748> 65 4<26.252 49.748>
VStem: 6 12<8.76328 59.2367> 58 12<8.76328 16 52 59.2367>
LayerCount: 2
Fore
SplineSet
70 16 m 0
 70 2 52 -1 38 -1 c 0
 24 -1 6 2 6 16 c 0
 6 30 6 38 6 52 c 0
 6 66 24 69 38 69 c 0
 52 69 70 66 70 52 c 0
 58 52 l 0
 58 62 48 65 38 65 c 0
 28 65 18 62 18 52 c 0
 18 38 18 30 18 16 c 0
 18 6 28 3 38 3 c 0
 48 3 58 6 58 16 c 0
 70 16 l 0
EndSplineSet
EndChar

StartChar: e
Encoding: 101 101 12
Width: 76
VWidth: 0
Flags: W
HStem: -1 4<26.252 49.748> 36 4<18 58> 65 4<26.9855 49.0145>
VStem: 6 12<8.76328 36 40 58.6782> 58 12<8.76328 16 40 58.6782>
LayerCount: 2
Fore
SplineSet
70 16 m 1
 70 2 52 -1 38 -1 c 0
 24 -1 6 2 6 16 c 0
 6 30 6 37 6 51 c 0
 6 65 24 69 38 69 c 0
 52 69 70 65 70 51 c 2
 70 40 l 1
 70 36 l 1
 18 36 l 1
 18 16 l 2
 18 6 28 3 38 3 c 0
 48 3 58 6 58 16 c 1
 70 16 l 1
18 40 m 1
 58 40 l 1
 58 51 l 2
 58 61 48 65 38 65 c 0
 28 65 18 61 18 51 c 2
 18 40 l 1
EndSplineSet
EndChar

StartChar: h
Encoding: 104 104 13
Width: 76
VWidth: 0
Flags: W
HStem: 64 4<26.9355 49.0145>
VStem: 6 12<50 57.6782> 58 12<50 57.6782>
LayerCount: 2
Fore
SplineSet
18 50 m 2
 18 60 28 64 38 64 c 0
 48 64 58 60 58 50 c 0
 58 36 58 14 58 0 c 0
 70 0 l 0
 70 14 70 36 70 50 c 0
 70 64 52 68 38 68 c 0
 31 68 24 67 18 65 c 2
 18 92 l 1
 6 92 l 1
 6 50 l 1
 6 18 l 1
 6 0 l 1
 18 0 l 1
 18 50 l 2
EndSplineSet
EndChar

StartChar: v
Encoding: 118 118 14
Width: 76
VWidth: 0
Flags: W
HStem: 0 21G<28.5882 50.2353> 0 21G<28.5882 50.2353> 48 20G<6 26.2857 57.7857 70>
LayerCount: 2
Fore
SplineSet
6 68 m 1xa0
 17 68 l 1
 43 12 l 5
 66 68 l 1
 70 68 l 1
 42 0 l 5
 38 0 l 5
 6 68 l 1xa0
EndSplineSet
EndChar

StartChar: l
Encoding: 108 108 15
Width: 76
VWidth: 0
Flags: W
HStem: 0 4<45.9816 59> 88 4<18 32>
VStem: 32 12<5.41699 88>
LayerCount: 2
Fore
SplineSet
32 12 m 7
 32 49 32 88 32 88 c 5
 18 88 l 5
 18 92 l 5
 44 92 l 5
 44 92 44 50 44 12 c 7
 44 7 47 4 50 4 c 7
 56 4 59 4 59 4 c 5
 59 0 l 5
 59 0 51 0 44 0 c 7
 36 0 32 4 32 12 c 7
EndSplineSet
EndChar

StartChar: u
Encoding: 117 117 16
Width: 76
VWidth: 0
Flags: W
HStem: 0 4<24.1985 46.5803>
VStem: 6 12<8.82936 16>
LayerCount: 2
Fore
SplineSet
34 0 m 3
 45 0 58 6 58 6 c 0
 58 0 l 0
 70 0 l 0
 70 68 l 0
 58 68 l 0
 58 14 l 2
 58 14 56 10 52 8 c 0
 50 7 44 4 38 4 c 0
 32 4 29 4 24 6 c 0
 18 8 18 14 18 14 c 2
 18 68 l 0
 6 68 l 0
 6 68 6 36 6 16 c 0
 6 4 23 0 34 0 c 3
EndSplineSet
EndChar

StartChar: t
Encoding: 116 116 17
Width: 76
VWidth: 0
Flags: W
HStem: 0 4<35.4053 44.4915>
VStem: 20 12<7.68658 18> 46 12<4.8666 14>
LayerCount: 2
Fore
SplineSet
20 68 m 1
 6 68 l 1
 6 64 l 1
 20 64 l 1
 20 18 l 2
 20 4 31 0 39 0 c 0
 48 0 58 0 58 14 c 1
 46 14 l 1
 46 3 42 4 39 4 c 0
 36 4 32 8 32 18 c 2
 32 64 l 1
 46 64 l 1
 46 68 l 1
 32 68 l 1
 32 92 l 1
 20 92 l 1
 20 68 l 1
EndSplineSet
EndChar

StartChar: r
Encoding: 114 114 18
Width: 76
VWidth: 0
Flags: W
HStem: 64 4<29.4197 51.8015>
VStem: 58 12<52 59.1706>
LayerCount: 2
Fore
SplineSet
42 68 m 3
 31 68 18 62 18 62 c 0
 18 68 l 0
 6 68 l 0
 6 0 l 0
 18 0 l 0
 18 54 l 2
 18 54 20 58 24 60 c 0
 26 61 32 64 38 64 c 0
 44 64 47 64 52 62 c 0
 58 60 58 54 58 54 c 2
 58 52 l 0
 70 52 l 0
 70 64 53 68 42 68 c 3
EndSplineSet
EndChar

StartChar: g
Encoding: 103 103 19
Width: 76
VWidth: 0
Flags: HW
HStem: -25 4<26.9855 49.0145> -1 4<26.9855 49.0645> 65 4<26.9855 49.0822>
VStem: 6 12<-14.6782 -7 9.32178 17 51 58.6782> 58 12<-14.6782 -7 9.32178 17 51 58.6782>
LayerCount: 2
Fore
SplineSet
58 51 m 2
 58 17 l 2
 58 7 48 3 38 3 c 0
 28 3 18 7 18 17 c 2
 18 51 l 2
 18 61 28 65 38 65 c 0
 48 65 58 61 58 51 c 2
38 69 m 0
 24 69 6 65 6 51 c 2
 6 17 l 2
 6 3 24 -1 38 -1 c 0
 45 -1 52 0 58 2 c 1
 58 -7 l 2
 58 -17 48 -21 38 -21 c 0
 28 -21 18 -17 18 -7 c 1
 6 -7 l 1
 6 -21 24 -25 38 -25 c 0
 52 -25 70 -21 70 -7 c 0
 70 18 70 43 70 68 c 1
 58 68 l 1
 58 66 l 1
 58 66 45 69 38 69 c 0
EndSplineSet
EndChar

StartChar: L
Encoding: 76 76 20
Width: 76
VWidth: 0
Flags: W
HStem: 0 4<18 70> 72 20G<6 18>
VStem: 6 12<4 92>
LayerCount: 2
Fore
SplineSet
6 92 m 1
 18 92 l 1
 18 4 l 1
 70 4 l 1
 70 0 l 1
 18 0 l 1
 6 0 l 1
 6 92 l 1
EndSplineSet
EndChar

StartChar: y
Encoding: 121 121 21
Width: 76
VWidth: 0
Flags: W
HStem: -25 4<19.3932 29.1245> 48 20G<6 26.2857 57.7857 70>
VStem: 6 12<-20.1334 -11>
LayerCount: 2
Fore
SplineSet
33 -20 m 6
 33 -21 30 -25 24 -25 c 7
 17 -25 6 -25 6 -11 c 1
 18 -11 l 3
 18 -20 20 -21 25 -21 c 3
 28 -21 31 -17 31 -17 c 2
 38 0 l 2
 6 68 l 1
 17 68 l 1
 43 12 l 1
 66 68 l 1
 70 68 l 1
 33 -20 l 6
EndSplineSet
EndChar

StartChar: m
Encoding: 109 109 22
Width: 76
VWidth: 0
Flags: W
HStem: 64 4<22.1505 29.7042 47.7706 55.242>
VStem: 6 12<54 61.0884> 32 12<53 60.125> 58 12<51 60.2603>
CounterMasks: 1 70
LayerCount: 2
Fore
SplineSet
52 64 m 3
 56 64 58 57 58 54 c 0
 58 0 l 1
 70 0 l 1
 70 51 l 2
 70 63 59 68 55 68 c 0
 49 68 43 64 42 59 c 1
 38 66 31 68 28 68 c 0
 22 68 18 62 18 62 c 1
 18 68 l 1
 6 68 l 1
 6 0 l 1
 18 0 l 1
 18 54 l 3
 18 57 21 64 26 64 c 0
 31 64 32 57 32 54 c 0
 32 0 l 1
 44 0 l 1
 44 18 44 35 44 53 c 0
 44 59 47 64 52 64 c 3
EndSplineSet
EndChar

StartChar: x
Encoding: 120 120 23
Width: 76
VWidth: 0
Flags: W
HStem: 0 21G<6 27.129 43.8065 70> 0 21G<6 27.129 43.8065 70> 48 20G<6 33 46.4286 70>
LayerCount: 2
Fore
SplineSet
6 68 m 1xa0
 18 68 l 1
 39 40 l 1
 65 68 l 1
 70 68 l 1
 42 37 l 1
 70 0 l 2
 58 0 l 2
 36 31 l 1
 11 0 l 1
 6 0 l 1
 34 34 l 1
 6 68 l 1xa0
EndSplineSet
EndChar

StartChar: z
Encoding: 122 122 24
Width: 76
VWidth: 0
Flags: W
HStem: 0 4<21 70> 64 4<6 55>
LayerCount: 2
Fore
SplineSet
55 64 m 1
 6 64 l 1
 6 68 l 1
 58 68 l 1
 60 68 l 1
 70 68 l 1
 21 4 l 1
 70 4 l 1
 70 0 l 1
 18 0 l 1
 16 0 l 1
 6 0 l 1
 55 64 l 1
EndSplineSet
EndChar

StartChar: j
Encoding: 106 106 25
Width: 76
VWidth: 0
Flags: HW
HStem: -24 4<20.5085 29.5947> 64 4<19 33> 76 12<33.646 44.354>
VStem: 7 12<-19.1334 -10> 33 12<-16.3134 64 76.646 87.354>
LayerCount: 2
Fore
SplineSet
45 -6 m 2
 45 -20 34 -24 26 -24 c 0
 17 -24 7 -24 7 -10 c 1
 19 -10 l 1
 19 -21 23 -20 26 -20 c 0
 29 -20 33 -16 33 -6 c 2
 33 64 l 1
 19 64 l 1
 19 68 l 1
 33 68 l 1
 45 68 l 1
 45 -6 l 2
EndSplineSet
Refer: 58 46 S 1 0 0 1 1 76 2
EndChar

StartChar: f
Encoding: 102 102 26
Width: 76
VWidth: 0
Flags: HW
HStem: 0 21G<20 32> 0 21G<20 32> 64 4<6 20 32 46> 88 4<35.4053 44.4915>
VStem: 20 12<0 64 68 84.3134> 46 12<78 87.1334>
LayerCount: 2
Fore
SplineSet
20 64 m 1xbc
 6 64 l 1
 6 68 l 1
 20 68 l 1
 20 74 l 2
 20 88 31 92 39 92 c 0
 48 92 58 92 58 78 c 1
 46 78 l 1
 46 87 43 88 40 88 c 0
 39 88 l 0
 36 88 32 84 32 74 c 2
 32 68 l 1
 46 68 l 1
 46 64 l 1
 32 64 l 1
 32 0 l 1
 20 0 l 1
 20 64 l 1xbc
EndSplineSet
EndChar

StartChar: uniFB01
Encoding: 64257 64257 27
Width: 152
VWidth: 0
Flags: W
HStem: 0 21G<19 31 95 107> 0 21G<19 31 95 107> 64 4<6 19 31 95> 88 4<38.8313 89.1673>
VStem: 19 12<0 64 68 83.5729> 95 12<0 64 78 84.7228>
LayerCount: 2
Fore
SplineSet
31 68 m 1xbc
 107 68 l 1
 107 0 l 1
 95 0 l 1
 95 64 l 1
 31 64 l 1
 31 0 l 1
 19 0 l 1
 19 64 l 1
 6 64 l 1
 6 68 l 1
 19 68 l 1
 19 74 l 2
 19 88 26 92 64 92 c 0
 92 92 107 92 107 78 c 1
 95 78 l 1
 95 89 84 88 64 88 c 0
 32 88 31 84 31 74 c 2
 31 68 l 1xbc
EndSplineSet
LCarets2: 1 0
Ligature2: "'rlig' Required Ligatures in Latin lookup 0-1" f i
EndChar

StartChar: uniFB02
Encoding: 64258 64258 28
Width: 152
VWidth: 0
Flags: W
HStem: 0 4<110.982 124> 64 4<6 20 32 46> 88 4<35.486 97>
VStem: 20 12<0 64 68 84.3134> 97 12<5.41699 88>
LayerCount: 2
Fore
SplineSet
39 88 m 2
 36 88 32 84 32 74 c 2
 32 68 l 1
 46 68 l 1
 46 64 l 1
 32 64 l 1
 32 0 l 1
 20 0 l 1
 20 64 l 1
 6 64 l 1
 6 68 l 1
 20 68 l 1
 20 74 l 2
 20 88 31 92 39 92 c 2
 87 92 l 1
 109 92 l 1
 109 92 109 50 109 12 c 0
 109 7 112 4 115 4 c 0
 121 4 124 4 124 4 c 1
 124 0 l 1
 124 0 116 0 109 0 c 0
 101 0 97 4 97 12 c 0
 97 49 97 88 97 88 c 1
 87 88 l 1
 39 88 l 2
EndSplineSet
LCarets2: 1 0
Ligature2: "'rlig' Required Ligatures in Latin lookup 0-1" f l
EndChar

StartChar: O
Encoding: 79 79 30
Width: 76
VWidth: 0
Flags: W
HStem: -1 4<26.252 49.748> 89 4<26.252 49.748>
VStem: 6 12<8.76328 83.2367> 58 12<8.76328 83.2367>
LayerCount: 2
Fore
SplineSet
38 93 m 0
 52 93 70 90 70 76 c 0
 70 62 70 30 70 16 c 0
 70 2 52 -1 38 -1 c 0
 24 -1 6 2 6 16 c 0
 6 30 6 62 6 76 c 0
 6 90 24 93 38 93 c 0
38 89 m 0
 28 89 18 86 18 76 c 0
 18 62 18 30 18 16 c 0
 18 6 28 3 38 3 c 0
 48 3 58 6 58 16 c 0
 58 30 58 62 58 76 c 0
 58 86 48 89 38 89 c 0
EndSplineSet
EndChar

StartChar: V
Encoding: 86 86 31
Width: 76
VWidth: 0
Flags: W
HStem: 0 21G<31.0435 48.087> 0 21G<31.0435 48.087> 72 20G<6 23.1053 59.9474 70>
LayerCount: 2
Fore
SplineSet
6 92 m 1xa0
 16 92 l 1
 43 16 l 1
 66 92 l 1
 70 92 l 1
 42 0 l 1
 38 0 l 1
 6 92 l 1xa0
EndSplineSet
EndChar

StartChar: Y
Encoding: 89 89 32
Width: 76
VWidth: 0
Flags: W
HStem: 0 21G<33 45> 0 21G<33 45> 72 20G<6 29 53.5 70>
VStem: 33 12<0 47>
LayerCount: 2
Fore
SplineSet
6 92 m 1xb0
 17 92 l 1
 41 52 l 1
 66 92 l 1
 70 92 l 1
 45 52 l 1
 45 0 l 1
 33 0 l 1
 33 47 l 1
 6 92 l 1xb0
EndSplineSet
EndChar

StartChar: J
Encoding: 74 74 33
Width: 76
VWidth: 0
Flags: W
HStem: -1 4<26.9855 49.0145> 72 20G<58 70>
VStem: 6 12<9.32178 17> 58 12<9.32178 92>
LayerCount: 2
Fore
SplineSet
58 92 m 0
 70 92 l 0
 70 78 70 31 70 17 c 0
 70 3 52 -1 38 -1 c 0
 24 -1 6 3 6 17 c 0
 18 17 l 0
 18 7 28 3 38 3 c 0
 48 3 58 7 58 17 c 0
 58 31 58 78 58 92 c 0
EndSplineSet
EndChar

StartChar: I
Encoding: 73 73 34
Width: 76
VWidth: 0
Flags: W
HStem: 0 4<6 21 33 46> 88 4<6 21 33 46>
VStem: 21 12<4 88>
LayerCount: 2
Fore
SplineSet
6 92 m 1
 46 92 l 1
 46 88 l 1
 33 88 l 1
 33 4 l 1
 46 4 l 1
 46 0 l 1
 6 0 l 1
 6 4 l 1
 21 4 l 1
 21 88 l 1
 6 88 l 1
 6 92 l 1
EndSplineSet
EndChar

StartChar: T
Encoding: 84 84 35
Width: 76
VWidth: 0
Flags: W
HStem: 0 21G<32 44> 0 21G<32 44> 88 4<6 32 44 70>
VStem: 32 12<0 88>
LayerCount: 2
Fore
SplineSet
6 92 m 1xb0
 70 92 l 1
 70 88 l 1
 44 88 l 1
 44 0 l 1
 32 0 l 1
 32 88 l 1
 6 88 l 1
 6 92 l 1xb0
EndSplineSet
EndChar

StartChar: U
Encoding: 85 85 36
Width: 76
VWidth: 0
Flags: W
HStem: -1 4<26.9855 49.0145> 72 20G<6 18 58 70>
VStem: 6 12<9.32178 92> 58 12<9.32178 92>
LayerCount: 2
Fore
SplineSet
58 92 m 1
 70 92 l 1
 70 78 70 31 70 17 c 0
 70 3 52 -1 38 -1 c 0
 24 -1 6 3 6 17 c 2
 6 92 l 1
 18 92 l 1
 18 17 l 2
 18 7 28 3 38 3 c 0
 48 3 58 7 58 17 c 0
 58 31 58 78 58 92 c 1
EndSplineSet
EndChar

StartChar: underscore
Encoding: 95 95 38
Width: 76
VWidth: 0
Flags: W
HStem: 0 4<6 70>
LayerCount: 2
Fore
SplineSet
6 4 m 1
 70 4 l 1
 70 0 l 1
 6 0 l 1
 6 4 l 1
EndSplineSet
EndChar

StartChar: asterisk
Encoding: 42 42 39
Width: 76
VWidth: 0
Flags: HW
HStem: 28 40
LayerCount: 2
Fore
SplineSet
38 68 m 1
 43 53 l 1
 59 53 l 1
 46 43 l 1
 51 28 l 1
 38 38 l 1
 25 28 l 1
 30 43 l 1
 17 53 l 1
 33 53 l 1
 38 68 l 1
EndSplineSet
EndChar

StartChar: hyphen
Encoding: 45 45 40
Width: 76
VWidth: 0
Flags: W
HStem: 44 4<6 70>
LayerCount: 2
Fore
SplineSet
6 48 m 1
 70 48 l 1
 70 44 l 1
 6 44 l 1
 6 48 l 1
EndSplineSet
EndChar

StartChar: plus
Encoding: 43 43 41
Width: 76
VWidth: 0
Flags: W
HStem: 44 4<6 32 44 70>
VStem: 32 12<14 44 48 78>
LayerCount: 2
Fore
SplineSet
32 78 m 1
 44 78 l 1
 44 48 l 1
 70 48 l 1
 70 44 l 1
 44 44 l 1
 44 14 l 1
 32 14 l 1
 32 44 l 1
 6 44 l 1
 6 48 l 1
 32 48 l 1
 32 78 l 1
EndSplineSet
EndChar

StartChar: C
Encoding: 67 67 42
Width: 76
VWidth: 0
Flags: W
HStem: -1 4<26.252 49.748> 89 4<26.252 49.748>
VStem: 6 12<8.76328 83.2367> 58 12<8.76328 16 76 83.2367>
LayerCount: 2
Fore
SplineSet
70 16 m 0
 70 2 52 -1 38 -1 c 0
 24 -1 6 2 6 16 c 0
 6 30 6 62 6 76 c 0
 6 90 24 93 38 93 c 0
 52 93 70 90 70 76 c 0
 58 76 l 0
 58 86 48 89 38 89 c 0
 28 89 18 86 18 76 c 0
 18 62 18 30 18 16 c 0
 18 6 28 3 38 3 c 0
 48 3 58 6 58 16 c 0
 70 16 l 0
EndSplineSet
EndChar

StartChar: three
Encoding: 51 51 43
Width: 76
VWidth: 0
Flags: W
HStem: -1 4<26.252 49.748> 46 4<38 49.9054> 89 4<26.252 49.748>
VStem: 6 12<8.76328 16 76 83.2367> 58 12<8.76328 40.4463 55.5537 83.2367>
LayerCount: 2
Fore
SplineSet
54 48 m 1
 63 46 70 42 70 33 c 2
 70 16 l 2
 70 2 52 -1 38 -1 c 0
 24 -1 6 2 6 16 c 1
 18 16 l 1
 18 6 28 3 38 3 c 0
 48 3 58 6 58 16 c 2
 58 33 l 2
 58 43 48 46 38 46 c 1
 38 50 l 1
 48 50 58 53 58 63 c 2
 58 76 l 2
 58 86 48 89 38 89 c 0
 28 89 18 86 18 76 c 1
 6 76 l 1
 6 90 24 93 38 93 c 0
 52 93 70 90 70 76 c 2
 70 63 l 2
 70 54 63 50 54 48 c 1
EndSplineSet
EndChar

StartChar: six
Encoding: 54 54 44
Width: 76
VWidth: 0
Flags: W
HStem: -1 4<26.252 49.748> 50 4<26.0736 49.748> 89 4<26.252 49.748>
VStem: 6 12<8.76328 44.4463 51 83.2367> 58 12<8.76328 44.2367 76 83.2367>
LayerCount: 2
Fore
SplineSet
38 54 m 0
 52 54 70 51 70 37 c 0
 70 23 70 30 70 16 c 0
 70 2 52 -1 38 -1 c 0
 24 -1 6 2 6 16 c 0
 6 30 6 23 6 37 c 2
 6 76 l 2
 6 90 24 93 38 93 c 0
 52 93 70 90 70 76 c 1
 58 76 l 1
 58 86 48 89 38 89 c 0
 28 89 18 86 18 76 c 2
 18 51 l 1
 24 53 31 54 38 54 c 0
58 16 m 0
 58 30 58 23 58 37 c 0
 58 47 48 50 38 50 c 0
 28 50 18 47 18 37 c 2
 18 16 l 2
 18 6 28 3 38 3 c 0
 48 3 58 6 58 16 c 0
EndSplineSet
EndChar

StartChar: H
Encoding: 72 72 45
Width: 76
VWidth: 0
Flags: W
HStem: 0 21G<6 18 58 70> 0 21G<6 18 58 70> 44 4<18 58> 72 20G<6 18 58 70>
VStem: 6 12<0 44 48 92> 58 12<0 44 48 92>
LayerCount: 2
Fore
SplineSet
6 92 m 1xbc
 18 92 l 1
 18 48 l 1
 58 48 l 1
 58 92 l 1
 70 92 l 1
 70 48 l 1
 70 44 l 1
 70 0 l 1
 58 0 l 1
 58 44 l 1
 18 44 l 1
 18 0 l 1
 6 0 l 1
 6 44 l 1
 6 48 l 1
 6 92 l 1xbc
EndSplineSet
EndChar

StartChar: A
Encoding: 65 65 46
Width: 76
VWidth: 0
Flags: W
HStem: 0 21G<6 15.9259 52.5926 70> 0 21G<6 15.9259 52.5926 70> 27 4<19 49> 72 20G<27.913 44.9565>
LayerCount: 2
Fore
SplineSet
70 0 m 1xb0
 60 0 l 1
 50 27 l 1
 18 27 l 1
 10 0 l 1
 6 0 l 1
 34 92 l 1
 38 92 l 1
 70 0 l 1xb0
49 31 m 1
 33 76 l 1
 19 31 l 1
 49 31 l 1
EndSplineSet
EndChar

StartChar: D
Encoding: 68 68 47
Width: 76
VWidth: 0
Flags: W
HStem: 0 4<18 49.5906> 88 4<18 49.5906>
VStem: 6 12<4 88> 58 12<9.76328 82.2367>
LayerCount: 2
Fore
SplineSet
38 92 m 2
 52 92 70 89 70 75 c 2
 70 17 l 2
 70 3 52 0 38 0 c 2
 6 0 l 1
 6 92 l 1
 38 92 l 2
38 88 m 2
 18 88 l 1
 18 4 l 1
 38 4 l 2
 48 4 58 7 58 17 c 2
 58 75 l 2
 58 85 48 88 38 88 c 2
EndSplineSet
EndChar

StartChar: F
Encoding: 70 70 48
Width: 76
VWidth: 0
Flags: W
HStem: 0 21G<6 18> 0 21G<6 18> 44 4<18 62> 88 4<18 70>
VStem: 6 12<0 44 48 88>
LayerCount: 2
Fore
SplineSet
18 88 m 1xb8
 18 48 l 1
 62 48 l 1
 62 44 l 1
 18 44 l 1
 18 0 l 1
 6 0 l 1
 6 44 l 1
 6 48 l 1
 6 88 l 1
 6 92 l 1
 18 92 l 1
 70 92 l 1
 70 88 l 1
 18 88 l 1xb8
EndSplineSet
EndChar

StartChar: E
Encoding: 69 69 49
Width: 76
VWidth: 0
Flags: W
HStem: 0 4<18 70> 44 4<18 62> 88 4<18 70>
VStem: 6 12<4 44 48 88>
CounterMasks: 1 e0
LayerCount: 2
Fore
SplineSet
18 88 m 1
 18 48 l 1
 62 48 l 1
 62 44 l 1
 18 44 l 1
 18 4 l 1
 70 4 l 1
 70 0 l 1
 18 0 l 1
 6 0 l 1
 6 44 l 1
 6 48 l 1
 6 88 l 1
 6 92 l 1
 18 92 l 1
 70 92 l 1
 70 88 l 1
 18 88 l 1
EndSplineSet
EndChar

StartChar: eight
Encoding: 56 56 50
Width: 76
VWidth: 0
Flags: W
HStem: -1 4<26.9855 49.0145> 46 4<26.8773 49.1227> 89 4<26.9855 49.0145>
VStem: 6 12<9.32178 39.6782 56.3218 82.6782> 58 12<9.32178 39.6782 56.3218 82.6782>
LayerCount: 2
Fore
SplineSet
38 89 m 0
 28 89 18 85 18 75 c 2
 18 64 l 2
 18 54 28 50 38 50 c 0
 48 50 58 54 58 64 c 2
 58 75 l 2
 58 85 48 89 38 89 c 0
38 93 m 0
 52 93 70 89 70 75 c 2
 70 64 l 2
 70 55 63 50 54 48 c 1
 63 46 70 41 70 32 c 0
 70 18 70 31 70 17 c 0
 70 3 52 -1 38 -1 c 0
 24 -1 6 3 6 17 c 0
 6 31 6 18 6 32 c 0
 6 41 13 46 22 48 c 1
 13 50 6 55 6 64 c 2
 6 75 l 2
 6 89 24 93 38 93 c 0
38 46 m 0
 28 46 18 42 18 32 c 0
 18 18 18 31 18 17 c 0
 18 7 28 3 38 3 c 0
 48 3 58 7 58 17 c 0
 58 31 58 18 58 32 c 0
 58 42 48 46 38 46 c 0
EndSplineSet
EndChar

StartChar: nine
Encoding: 57 57 51
Width: 76
VWidth: 0
Flags: W
HStem: -1 4<26.252 49.748> 40 4<26.252 49.9264> 89 4<26.252 49.748>
VStem: 6 12<8.76328 16 49.7633 83.2367> 58 12<8.76328 43 49.5537 83.2367>
LayerCount: 2
Fore
SplineSet
38 40 m 0
 24 40 6 43 6 57 c 0
 6 71 6 62 6 76 c 0
 6 90 24 93 38 93 c 0
 52 93 70 90 70 76 c 0
 70 62 70 69 70 55 c 2
 70 16 l 2
 70 2 52 -1 38 -1 c 0
 24 -1 6 2 6 16 c 1
 18 16 l 1
 18 6 28 3 38 3 c 0
 48 3 58 6 58 16 c 2
 58 43 l 1
 52 41 45 40 38 40 c 0
18 76 m 0
 18 62 18 71 18 57 c 0
 18 47 28 44 38 44 c 0
 48 44 58 47 58 57 c 2
 58 76 l 2
 58 86 48 89 38 89 c 0
 28 89 18 86 18 76 c 0
EndSplineSet
EndChar

StartChar: P
Encoding: 80 80 52
Width: 76
VWidth: 0
Flags: W
HStem: 0 21G<6 18> 0 21G<6 18> 42 4<18 48.9062> 88 4<18 48.9062>
VStem: 6 12<0 42 46 88> 58 12<52.3218 81.6782>
LayerCount: 2
Fore
SplineSet
38 88 m 2x3c
 18 88 l 1
 18 46 l 1
 38 46 l 2
 48 46 58 50 58 60 c 2
 58 74 l 2
 58 84 48 88 38 88 c 2x3c
38 92 m 2
 52 92 70 88 70 74 c 2
 70 60 l 2
 70 46 52 42 38 42 c 2
 18 42 l 1
 18 0 l 1
 6 0 l 1xbc
 6 44 l 1
 6 92 l 1
 38 92 l 2
EndSplineSet
EndChar

StartChar: B
Encoding: 66 66 53
Width: 76
VWidth: 0
Flags: W
HStem: 0 4<18 48.9062> 46 4<18 49.1227> 88 4<18 48.9062>
VStem: 6 12<4 46 50 88> 58 12<10.3218 39.6782 56.3218 81.6782>
LayerCount: 2
Fore
SplineSet
38 88 m 2
 18 88 l 1
 18 50 l 1
 38 50 l 2
 48 50 58 54 58 64 c 2
 58 74 l 2
 58 84 48 88 38 88 c 2
38 92 m 2
 52 92 70 88 70 74 c 2
 70 64 l 2
 70 55 63 50 54 48 c 1
 63 46 70 41 70 32 c 2
 70 18 l 2
 70 4 52 0 38 0 c 2
 6 0 l 1
 6 44 l 1
 6 48 l 1
 6 92 l 1
 38 92 l 2
38 46 m 2
 18 46 l 1
 18 4 l 1
 38 4 l 2
 48 4 58 8 58 18 c 2
 58 32 l 2
 58 42 48 46 38 46 c 2
EndSplineSet
EndChar

StartChar: at
Encoding: 64 64 54
Width: 76
VWidth: 0
Flags: W
HStem: -1 4<26.252 49.748> 28 4<49.2043 58> 72 4<49.2043 58> 89 4<26.252 49.748>
VStem: 6 12<8.76328 83.2367> 32 12<36.4271 67.5729> 58 12<8.76328 16 32 72 76 83.2367>
CounterMasks: 1 0e
LayerCount: 2
Fore
SplineSet
70 16 m 1
 70 2 52 -1 38 -1 c 0
 24 -1 6 2 6 16 c 0
 6 30 6 62 6 76 c 0
 6 90 24 93 38 93 c 0
 52 93 70 90 70 76 c 2
 70 28 l 1
 58 28 l 2
 44 28 32 32 32 46 c 2
 32 58 l 2
 32 72 44 76 58 76 c 1
 58 86 48 89 38 89 c 0
 28 89 18 86 18 76 c 0
 18 62 18 30 18 16 c 0
 18 6 28 3 38 3 c 0
 48 3 58 6 58 16 c 1
 70 16 l 1
58 72 m 1
 48 72 44 68 44 58 c 2
 44 46 l 2
 44 36 48 32 58 32 c 1
 58 72 l 1
EndSplineSet
EndChar

StartChar: Z
Encoding: 90 90 55
Width: 76
VWidth: 0
Flags: W
HStem: 0 4<21 70> 88 4<6 55>
LayerCount: 2
Fore
SplineSet
55 88 m 1
 6 88 l 1
 6 92 l 1
 58 92 l 1
 60 92 l 1
 70 92 l 1
 21 4 l 1
 70 4 l 1
 70 0 l 1
 18 0 l 1
 16 0 l 1
 6 0 l 1
 55 88 l 1
EndSplineSet
EndChar

StartChar: quotesingle
Encoding: 39 39 56
Width: 76
VWidth: 0
Flags: W
HStem: 68 24<6 18>
VStem: 6 12<68 92>
LayerCount: 2
Fore
SplineSet
6 92 m 1
 18 92 l 1
 18 68 l 1
 6 68 l 1
 6 92 l 1
EndSplineSet
EndChar

StartChar: quotedbl
Encoding: 34 34 57
Width: 76
VWidth: 0
Flags: W
HStem: 68 24<6 18 30 42>
VStem: 6 12<68 92> 30 12<68 92>
LayerCount: 2
Fore
SplineSet
30 92 m 1
 42 92 l 1
 42 68 l 1
 30 68 l 1
 30 92 l 1
18 92 m 1
 18 68 l 1
 6 68 l 1
 6 92 l 1
 18 92 l 1
EndSplineSet
EndChar

StartChar: period
Encoding: 46 46 58
Width: 76
VWidth: 0
Flags: W
HStem: 0 12<32.646 43.354>
VStem: 32 12<0.645996 11.354>
LayerCount: 2
Fore
SplineSet
32 6 m 0
 32 10 34 12 38 12 c 0
 42 12 44 10 44 6 c 0
 44 2 42 0 38 0 c 0
 34 0 32 2 32 6 c 0
EndSplineSet
EndChar

StartChar: exclam
Encoding: 33 33 59
Width: 76
VWidth: 0
Flags: W
HStem: 0 12<32.646 43.354> 72 20G<32 44>
VStem: 32 12<0.645996 11.354 20 92>
LayerCount: 2
Fore
SplineSet
32 92 m 1
 44 92 l 1
 44 20 l 1
 32 20 l 1
 32 92 l 1
EndSplineSet
Refer: 58 46 N 1 0 0 1 0 0 2
EndChar

StartChar: slash
Encoding: 47 47 61
Width: 76
VWidth: 0
Flags: W
HStem: 0 21G<6 28.5217> 0 21G<6 28.5217> 72 20G<47.4783 70>
LayerCount: 2
Fore
SplineSet
70 92 m 1xa0
 17 0 l 1
 6 0 l 1
 59 92 l 1
 70 92 l 1xa0
EndSplineSet
EndChar

StartChar: k
Encoding: 107 107 63
Width: 76
VWidth: 0
Flags: W
LayerCount: 2
Fore
SplineSet
18 42 m 3
 18 62 18 92 18 92 c 1
 6 92 l 1
 6 0 l 1
 18 0 l 1
 18 35 l 1
 61 0 l 1
 72 0 l 1
 25 38 l 1
 70 68 l 1
 63 68 l 1
 25 42 l 0
 24 41 18 40 18 42 c 3
EndSplineSet
Colour: ffff00
EndChar

StartChar: bar
Encoding: 124 124 64
Width: 76
VWidth: 0
Flags: W
HStem: 0 21G<6 18> 0 21G<6 18> 72 20G<6 18>
VStem: 6 12<0 92>
LayerCount: 2
Fore
SplineSet
6 92 m 5xb0
 18 92 l 5
 18 0 l 5
 6 0 l 5
 6 92 l 5xb0
EndSplineSet
EndChar

StartChar: G
Encoding: 71 71 65
Width: 76
VWidth: 0
Flags: W
HStem: -1 4<26.252 49.748> 42 4<32 58> 89 4<26.252 49.748>
VStem: 6 12<8.76328 83.2367> 58 12<8.76328 42 76 83.2367>
LayerCount: 2
Fore
SplineSet
70 16 m 2
 70 2 52 -1 38 -1 c 0
 24 -1 6 2 6 16 c 0
 6 30 6 62 6 76 c 0
 6 90 24 93 38 93 c 0
 52 93 70 90 70 76 c 1
 58 76 l 1
 58 86 48 89 38 89 c 0
 28 89 18 86 18 76 c 0
 18 62 18 30 18 16 c 0
 18 6 28 3 38 3 c 0
 48 3 58 6 58 16 c 2
 58 42 l 1
 32 42 l 1
 32 46 l 1
 58 46 l 1
 70 46 l 1
 70 16 l 2
EndSplineSet
EndChar

StartChar: R
Encoding: 82 82 66
Width: 76
VWidth: 0
Flags: W
HStem: 0 21G<6 18 47.7619 74> 0 21G<6 18 47.7619 74> 42 4<18 31 42 48.7941> 88 4<18 48.9062>
VStem: 6 12<0 42 46 88> 58 12<52.3218 81.6782>
LayerCount: 2
Fore
SplineSet
38 92 m 2xbc
 52 92 70 88 70 74 c 2
 70 60 l 2
 70 47 55 42 42 42 c 1
 74 0 l 1
 63 0 l 1
 31 42 l 1
 18 42 l 1
 18 0 l 1
 6 0 l 1
 6 44 l 1
 6 92 l 1
 38 92 l 2xbc
38 88 m 2
 18 88 l 1
 18 46 l 1
 38 46 l 2
 48 46 58 50 58 60 c 2
 58 74 l 2
 58 84 48 88 38 88 c 2
EndSplineSet
EndChar

StartChar: parenleft
Encoding: 40 40 67
Width: 76
VWidth: 0
Flags: W
HStem: -5 4<45.2285 52> 93 4<45.2285 52>
VStem: 20 12<11.6146 80.3854>
LayerCount: 2
Fore
SplineSet
52 -5 m 0
 38 -5 20 7 20 21 c 0
 20 35 20 57 20 71 c 0
 20 85 38 97 52 97 c 0
 52 93 l 0
 42 93 32 81 32 71 c 0
 32 57 32 35 32 21 c 0
 32 11 42 -1 52 -1 c 0
 52 -5 l 0
EndSplineSet
EndChar

StartChar: one
Encoding: 49 49 69
Width: 76
VWidth: 0
Flags: W
HStem: 0 21G<33 45> 0 21G<33 45> 88 4<19 33>
VStem: 33 12<0 88>
LayerCount: 2
Fore
SplineSet
19 92 m 1xb0
 45 92 l 1
 45 0 l 1
 33 0 l 1
 33 88 l 0
 19 88 l 0
 19 92 l 1xb0
EndSplineSet
EndChar

StartChar: W
Encoding: 87 87 70
Width: 76
VWidth: 0
Flags: W
HStem: 0 21G<20.8696 32.125 47.9375 59.0435> 0 21G<20.8696 32.125 47.9375 59.0435> 72 20G<6 19.7143 36.1429 46.4286 62.8571 70>
VStem: 6 10<87.6615 92> 39 4<86.7733 92>
LayerCount: 2
Fore
SplineSet
6 92 m 1xb8
 16 92 l 1
 29 22 l 1
 39 92 l 1
 43 92 l 1
 55 22 l 1
 66 92 l 1
 70 92 l 1
 56 0 l 1
 52 0 l 1
 39 64 l 1
 29 0 l 1
 25 0 l 1
 6 92 l 1xb8
EndSplineSet
EndChar

StartChar: X
Encoding: 88 88 71
Width: 76
VWidth: 0
Flags: W
HStem: 0 21G<6 23.1707 48.2683 71> 0 21G<6 23.1707 48.2683 71> 72 20G<6 28.2195 53.3171 70>
LayerCount: 2
Fore
SplineSet
70 92 m 1xa0
 42 47 l 1
 71 0 l 1
 59 0 l 1
 37 41 l 1
 10 0 l 1
 6 0 l 1
 35 44 l 1
 6 92 l 1
 17 92 l 1
 40 51 l 1
 66 92 l 1
 70 92 l 1xa0
EndSplineSet
EndChar

StartChar: S
Encoding: 83 83 72
Width: 76
VWidth: 0
Flags: W
HStem: 0 4<28.489 47.511> 46 4<27.0938 48.9062> 88 4<28.489 47.511>
VStem: 6 12<11.94 20 56.3218 80.06> 58 12<11.94 39.6782 72 80.06>
LayerCount: 2
Fore
SplineSet
38 50 m 0
 52 50 70 46 70 32 c 2
 70 20 l 2
 70 6 52 0 38 0 c 0
 24 0 6 6 6 20 c 1
 18 20 l 1
 18 10 28 4 38 4 c 0
 48 4 58 10 58 20 c 2
 58 32 l 2
 58 42 48 46 38 46 c 0
 24 46 6 50 6 64 c 2
 6 72 l 2
 6 86 24 92 38 92 c 0
 52 92 70 86 70 72 c 1
 58 72 l 1
 58 82 48 88 38 88 c 0
 28 88 18 82 18 72 c 2
 18 64 l 2
 18 54 28 50 38 50 c 0
EndSplineSet
EndChar

StartChar: w
Encoding: 119 119 73
Width: 76
VWidth: 0
Flags: W
HStem: 0 21G<19.4118 33.2553 46.4681 60.1176> 0 21G<19.4118 33.2553 46.4681 60.1176> 48 20G<6 21 35.1538 47.6154 61.7692 70>
VStem: 6 10<64.7933 68> 39 4<64.1173 68>
LayerCount: 2
Fore
SplineSet
6 68 m 5xb8
 16 68 l 5
 29 16 l 5
 39 68 l 5
 43 68 l 5
 55 16 l 5
 66 68 l 5
 70 68 l 5
 56 0 l 5
 52 0 l 5
 39 47 l 5
 29 0 l 5
 25 0 l 5
 6 68 l 5xb8
EndSplineSet
EndChar

StartChar: bracketleft
Encoding: 91 91 74
Width: 76
VWidth: 0
Flags: W
HStem: 0 4<30 58> 88 4<30 58>
VStem: 18 12<4 88>
LayerCount: 2
Fore
SplineSet
18 0 m 1
 18 92 l 1
 30 92 l 1
 58 92 l 1
 58 88 l 1
 30 88 l 1
 30 4 l 1
 58 4 l 1
 58 0 l 1
 30 0 l 1
 18 0 l 1
EndSplineSet
EndChar

StartChar: Q
Encoding: 81 81 76
Width: 76
VWidth: 0
Flags: W
HStem: -1 4<26.4094 46> 89 4<26.252 49.748>
VStem: 6 12<8.76328 83.2367> 58 12<8.55371 83.2367>
LayerCount: 2
Fore
SplineSet
38 89 m 0
 28 89 18 86 18 76 c 0
 18 62 18 30 18 16 c 0
 18 6 28 3 38 3 c 0
 48 3 58 6 58 16 c 0
 58 30 58 62 58 76 c 0
 58 86 48 89 38 89 c 0
38 93 m 0
 52 93 70 90 70 76 c 0
 70 62 70 30 70 16 c 0
 70 8 63 3 55 1 c 1
 68 -12 l 1
 57 -12 l 1
 46 -1 l 2
 43 -1 40 -1 38 -1 c 0
 24 -1 6 2 6 16 c 0
 6 30 6 62 6 76 c 0
 6 90 24 93 38 93 c 0
EndSplineSet
EndChar

StartChar: N
Encoding: 78 78 77
Width: 76
VWidth: 0
Flags: W
HStem: 0 21G<6 18 49.8312 70> 0 21G<6 18 49.8312 70> 72 20G<6 26.1688 58 70>
VStem: 6 12<0 77> 58 12<15 92>
LayerCount: 2
Fore
SplineSet
70 92 m 1xb8
 70 0 l 1
 61 0 l 1
 18 77 l 1
 18 53 18 24 18 0 c 1
 6 0 l 1
 6 92 l 1
 15 92 l 1
 58 15 l 1
 58 92 l 1
 70 92 l 1xb8
EndSplineSet
Colour: ffff00
EndChar

StartChar: five
Encoding: 53 53 78
Width: 76
VWidth: 0
Flags: HW
HStem: -1 4<26.252 49.748> 50 4<21.4904 49.748> 89 3<18 70>
VStem: 6 12<8.76328 16 51 89> 58 12<8.76328 44.2367>
LayerCount: 2
Fore
SplineSet
58 16 m 2
 58 37 l 2
 58 47 48 50 38 50 c 0
 27 50 18 49 14 44 c 1
 6 44 l 1
 6 92 l 1
 70 92 l 1
 70 89 l 1
 18 89 l 1
 18 51 l 5
 24 53 31 54 38 54 c 0
 52 54 70 51 70 37 c 2
 70 16 l 2
 70 2 52 -1 38 -1 c 0
 24 -1 6 2 6 16 c 1
 18 16 l 1
 18 6 28 3 38 3 c 0
 48 3 58 6 58 16 c 2
EndSplineSet
EndChar

StartChar: seven
Encoding: 55 55 79
Width: 76
VWidth: 0
Flags: W
HStem: 0 21G<28 45.7391> 0 21G<28 45.7391> 88 4<6 58>
LayerCount: 2
Fore
SplineSet
70 92 m 1xa0
 39 0 l 1
 28 0 l 1
 58 88 l 1
 6 88 l 1
 6 92 l 1
 59 92 l 1
 61 92 l 1
 70 92 l 1xa0
EndSplineSet
EndChar

StartChar: M
Encoding: 77 77 80
Width: 76
VWidth: 0
Flags: W
HStem: 0 21G<6 18 30.7273 48.0377 58 70> 0 21G<6 18 30.7273 48.0377 58 70> 72 20G<6 21.5325 60.026 70>
VStem: 6 12<0 55> 58 12<0 53> 66 4<89.0003 92>
LayerCount: 2
Fore
SplineSet
70 92 m 1xb4
 70 0 l 1
 58 0 l 1
 58 53 l 1xb8
 42 0 l 1
 38 0 l 1
 18 55 l 1
 18 0 l 1
 6 0 l 1
 6 92 l 1
 14 92 l 1
 43 15 l 1
 66 92 l 1
 70 92 l 1xb4
EndSplineSet
Colour: ffff00
EndChar

StartChar: uni007F
Encoding: 127 127 81
Width: 128
VWidth: 0
Flags: H
LayerCount: 2
Fore
SplineSet
10 88 m 5
 10 4 l 5
 66 4 l 5
 66 88 l 5
 10 88 l 5
6 92 m 5
 70 92 l 5
 70 0 l 5
 6 0 l 5
 6 92 l 5
EndSplineSet
EndChar

StartChar: K
Encoding: 75 75 82
Width: 76
VWidth: 0
Flags: HW
LayerCount: 2
Fore
SplineSet
18 55 m 7
 18 75 18 92 18 92 c 1
 6 92 l 1
 6 0 l 1
 18 0 l 1
 18 46 l 1
 61 0 l 1
 72 0 l 1
 25 49 l 1
 70 92 l 1
 63 92 l 1
 27 56 l 0
 23 52 18 49 18 55 c 7
EndSplineSet
EndChar

StartChar: question
Encoding: 63 63 83
Width: 76
VWidth: 0
Flags: W
HStem: 0 12<32.646 43.354> 89 4<26.252 49.748>
VStem: 6 12<76 83.2367> 32 12<0.645996 11.354 20 46.2239> 58 12<55.5537 83.2367>
CounterMasks: 1 38
LayerCount: 2
Fore
SplineSet
44 46 m 5
 44 20 l 1
 32 20 l 1
 32 50 l 5
 38 50 l 6
 48 50 58 53 58 63 c 4
 58 77 58 62 58 76 c 0
 58 86 48 89 38 89 c 0
 28 89 18 86 18 76 c 1
 6 76 l 1
 6 90 24 93 38 93 c 0
 52 93 70 90 70 76 c 0
 70 62 70 77 70 63 c 4
 70 51 57 47 44 46 c 5
EndSplineSet
Refer: 58 46 N 1 0 0 1 0 0 2
EndChar

